<svg width="20" height="20" viewBox="0 0 20 20" fill="none" xmlns="http://www.w3.org/2000/svg">
<g clip-path="url(#clip0_1_226)">
<path d="M9.17592 0.0590286C6.85001 0.367674 4.90255 1.75854 3.86969 3.84483C3.49518 4.60668 3.29413 5.2982 3.19951 6.17335C3.01423 7.84942 3.66075 9.72474 5.24158 12.108C5.7659 12.8933 6.50704 13.8856 7.14568 14.6475L7.5872 15.1749L7.41769 15.2101C6.98799 15.2921 6.16801 15.5187 5.85263 15.6437C5.01294 15.9719 4.4216 16.4173 4.18113 16.9057C4.0668 17.1323 4.05103 17.2026 4.05103 17.48C4.05103 17.7417 4.07075 17.8316 4.16142 18.023C4.3743 18.4762 4.73304 18.8044 5.37168 19.1209C6.95645 19.9101 9.73177 20.2031 12.2311 19.8437C13.5321 19.6561 14.6595 19.2693 15.3297 18.7771C15.6214 18.5622 15.8225 18.3278 15.9644 18.023C16.1182 17.6988 16.1182 17.269 15.9684 16.9408C15.854 16.6947 15.5071 16.3079 15.2351 16.1243C14.9986 15.9641 14.5176 15.7297 14.1392 15.589C13.8672 15.4914 12.8619 15.2257 12.6096 15.1866C12.5505 15.1788 12.6372 15.0538 13.0235 14.5889C15.5781 11.5024 16.9618 8.77927 16.9618 6.83753C16.9618 4.56761 15.791 2.41099 13.875 1.14515C12.4992 0.234838 10.7962 -0.15976 9.17592 0.0590286ZM11.214 1.2858C12.3455 1.52022 13.2364 2.00858 14.084 2.84857C14.9394 3.69637 15.4125 4.55198 15.6688 5.72796C15.7791 6.24758 15.791 7.17743 15.6885 7.65407C15.4519 8.74801 14.7739 10.1584 13.7607 11.6587C12.9289 12.8854 11.4269 14.7256 10.3507 15.8273L10.059 16.1282L9.75148 15.8078C8.54911 14.5615 7.18116 12.8815 6.29416 11.561C5.34802 10.1506 4.79611 9.0254 4.49256 7.88849C4.38218 7.47436 4.3743 7.3845 4.37035 6.79455C4.37035 5.62248 4.65814 4.677 5.32831 3.66902C5.60033 3.25879 6.42425 2.43053 6.81847 2.17267C7.6148 1.65305 8.45844 1.33268 9.35332 1.20766C9.76725 1.15297 10.7765 1.19203 11.214 1.2858ZM9.29813 17.019L10.0629 17.7925L10.8317 17.015L11.6004 16.2376L11.8645 16.2649C12.6411 16.3431 13.6937 16.6322 14.2535 16.9213C14.5925 17.0971 14.9118 17.3628 14.9118 17.4761C14.9118 17.5972 14.6004 17.8785 14.289 18.0387C12.243 19.0857 7.87893 19.0857 5.83686 18.0387C5.52542 17.8785 5.21399 17.5972 5.21399 17.4761C5.21399 17.269 5.89599 16.851 6.60165 16.6244C7.09049 16.4642 8.04844 16.2649 8.37959 16.2532C8.5294 16.2493 8.55699 16.2727 9.29813 17.019Z" fill="#005CCE"/>
<path d="M9.6293 3.16107C8.06029 3.35642 6.80273 4.47379 6.42821 6.0014C6.32177 6.4546 6.31389 7.15003 6.41245 7.59542C6.6135 8.47447 7.1181 9.25195 7.8277 9.78719C8.11943 10.006 8.76595 10.3224 9.0971 10.4045C9.89737 10.6076 10.7725 10.549 11.49 10.2404C12.105 9.98254 12.649 9.56059 13.0433 9.04879C13.2956 8.7167 13.5912 8.0955 13.6937 7.67355C13.8041 7.21254 13.8159 6.52101 13.7134 6.07172C13.3902 4.66132 12.3061 3.55957 10.9223 3.23921C10.5281 3.14935 9.98016 3.11809 9.6293 3.16107ZM10.7213 4.39565C11.5807 4.61835 12.2942 5.33331 12.5308 6.21237C12.6175 6.54446 12.6175 7.12659 12.5308 7.45867C12.3494 8.12676 11.8606 8.74014 11.2614 9.04879C10.8396 9.26757 10.5202 9.34571 10.0629 9.34571C9.60564 9.34571 9.28632 9.26757 8.86451 9.04879C8.26529 8.74014 7.77645 8.12676 7.59511 7.45867C7.50838 7.12659 7.50444 6.54446 7.59117 6.21237C7.85136 5.24345 8.69499 4.48551 9.68843 4.33705C9.96833 4.29407 10.4296 4.32142 10.7213 4.39565Z" fill="#005CCE"/>
</g>
<defs>
<clipPath id="clip0_1_226">
<rect width="20" height="20" fill="white"/>
</clipPath>
</defs>
</svg>
