<svg width="20" height="20" viewBox="0 0 20 20" fill="none" xmlns="http://www.w3.org/2000/svg">
<path d="M14.5833 18.3334C13.6816 18.3438 12.827 17.9318 12.2735 17.2198C11.7201 16.5078 11.5316 15.578 11.7642 14.7067L6.54749 11.725C5.64607 12.5509 4.32473 12.7257 3.23957 12.1626C2.1544 11.5995 1.53656 10.4186 1.6928 9.20603C1.84905 7.99351 2.7461 7.00772 3.93856 6.73815C5.13101 6.46857 6.36488 6.97262 7.0275 8.00003L11.7633 5.29253C11.7021 5.06101 11.6696 4.82283 11.6667 4.58336C11.6547 3.18896 12.6232 1.97765 13.986 1.68238C15.3488 1.38711 16.7318 2.08898 17.298 3.36329C17.8643 4.6376 17.4583 6.13438 16.3258 6.94795C15.1933 7.76152 13.6452 7.66844 12.6183 6.72503L7.4925 9.65419C7.48742 9.8703 7.45722 10.0851 7.40249 10.2942L12.6183 13.275C13.5785 12.3938 15.0073 12.2578 16.1166 12.942C17.2258 13.6261 17.7455 14.964 17.389 16.2175C17.0325 17.4711 15.8866 18.3353 14.5833 18.3334ZM14.5833 14.1667C13.893 14.1667 13.3333 14.7263 13.3333 15.4167C13.3333 16.107 13.893 16.6667 14.5833 16.6667C15.2737 16.6667 15.8333 16.107 15.8333 15.4167C15.8333 14.7263 15.2737 14.1667 14.5833 14.1667ZM4.58333 8.33336C3.89297 8.33336 3.33333 8.893 3.33333 9.58336C3.33333 10.2737 3.89297 10.8334 4.58333 10.8334C5.27368 10.8334 5.83333 10.2737 5.83333 9.58336C5.83333 8.893 5.27368 8.33336 4.58333 8.33336ZM14.5833 3.33336C13.893 3.33336 13.3333 3.893 13.3333 4.58336C13.3333 5.27372 13.893 5.83336 14.5833 5.83336C15.2737 5.83336 15.8333 5.27372 15.8333 4.58336C15.8333 3.893 15.2737 3.33336 14.5833 3.33336Z" fill="#DB2F09"/>
</svg>
