<svg width="46" height="42" viewBox="0 0 46 42" fill="none" xmlns="http://www.w3.org/2000/svg">
<path d="M45.4835 22.1425L34.869 18.4685V5.71396V5.30296C34.869 4.98346 34.666 4.69896 34.364 4.59446L23.245 0.745962C23.086 0.690962 22.9135 0.690962 22.7545 0.745962L11.6355 4.59446C11.3335 4.69896 11.131 4.98346 11.131 5.30296V5.71396V18.4685L0.516036 22.1425C0.214036 22.247 0.0115356 22.531 0.0115356 22.8505V23.2615V36.286V36.697C0.0115356 37.0175 0.214036 37.3015 0.516036 37.406L11.635 41.2545C11.638 41.2555 11.6415 41.2545 11.6445 41.2555C11.721 41.281 11.8005 41.2955 11.8805 41.2955C11.9605 41.2955 12.04 41.281 12.1165 41.2555C12.1195 41.2545 12.1225 41.2555 12.126 41.2545L23 37.491L33.8735 41.2545C33.8775 41.2555 33.8805 41.2545 33.8835 41.2555C33.9595 41.281 34.039 41.2955 34.12 41.2955C34.2 41.2955 34.279 41.281 34.3555 41.2555C34.3585 41.2545 34.3625 41.2555 34.3655 41.2545L45.4845 37.406C45.7865 37.3015 45.9895 37.0175 45.9895 36.697V36.286V23.2615V22.8505C45.9885 22.5315 45.785 22.247 45.4835 22.1425ZM34.119 26.3165L24.912 23.13L26.7205 22.504L35.6705 25.7795L34.119 26.3165ZM11.8805 26.3165L10.3285 25.7795L19.279 22.504L21.0875 23.13L11.8805 26.3165ZM15.4085 4.87546C15.4365 4.88996 15.4635 4.90596 15.494 4.91696L24.552 8.23146L23 8.76896L13.58 5.50846L15.4085 4.87546ZM19.757 3.37046C19.7605 3.37146 19.7635 3.37396 19.767 3.37496L29.0245 6.63146L26.7255 7.42946L17.6375 4.10396L19.757 3.37046ZM37.8445 24.9775L28.9635 21.7275L31.0855 20.9935L40.144 24.18L37.8445 24.9775ZM8.15454 24.9775L5.85504 24.1795L14.9135 20.993L17.0355 21.727L8.15454 24.9775ZM22.25 21.798L12.631 18.4685V6.76746L22.25 10.0965V21.798ZM33.369 18.4685L23.75 21.798V10.0965L25.956 9.33296V13.79C25.956 14.1025 26.1505 14.383 26.4425 14.492C26.5285 14.524 26.6175 14.54 26.706 14.54C26.918 14.54 27.125 14.45 27.2705 14.284L29.119 12.1705L30.824 12.658C31.0505 12.7225 31.2935 12.6775 31.481 12.5355C31.6685 12.394 31.78 12.172 31.78 11.937V7.31746L33.369 6.76746V18.4685V18.4685ZM27.456 8.81346L30.28 7.83646V10.9425L29.074 10.598C28.7955 10.519 28.495 10.607 28.3035 10.825L27.456 11.794V8.81346V8.81346ZM11.6675 19.87L12.635 20.205L3.50254 23.417L2.46054 23.0565L11.6675 19.87ZM4.60004 25.384L7.42404 26.3615V29.342L6.57654 28.373C6.43204 28.208 6.22504 28.117 6.01204 28.117C5.94354 28.117 5.87404 28.126 5.80604 28.1455L4.60004 28.49V25.384ZM38.575 26.3615L41.399 25.385V28.4905L40.193 28.146C39.9135 28.067 39.614 28.155 39.4225 28.3735L38.575 29.3425V26.3615ZM42.497 23.417L33.3645 20.205L34.3325 19.87L43.5395 23.057L42.497 23.417ZM23 2.24846L32.42 5.50896L31.378 5.86996L22.034 2.58296L23 2.24846ZM1.51154 24.3155L3.10004 24.8655V29.4845C3.10004 29.72 3.21054 29.9415 3.39854 30.083C3.58654 30.2245 3.83004 30.2695 4.05604 30.206L5.76104 29.7185L7.60954 31.832C7.75504 31.998 7.96204 32.088 8.17404 32.088C8.26254 32.088 8.35154 32.0725 8.43754 32.04C8.73004 31.9295 8.92404 31.6505 8.92404 31.338V26.881L11.1305 27.6445V39.493L1.51154 36.164V24.3155ZM12.6305 27.6445L22.25 24.3155V36.164L12.631 39.493V27.6445H12.6305ZM23.75 24.3155L33.369 27.6445V39.493L23.75 36.164V24.3155ZM44.4885 36.163L34.8695 39.493V27.6445L37.0755 26.881V31.338C37.0755 31.6505 37.27 31.93 37.562 32.04C37.648 32.072 37.737 32.088 37.8255 32.088C38.0375 32.088 38.2445 31.998 38.39 31.832L40.2385 29.7185L41.9435 30.206C42.17 30.2695 42.413 30.2245 42.6005 30.083C42.789 29.9415 42.8995 29.7195 42.8995 29.4845V24.865L44.4885 24.315V36.163V36.163Z" fill="#005CCE"/>
</svg>
