<svg width="20" height="20" viewBox="0 0 20 20" fill="none" xmlns="http://www.w3.org/2000/svg">
<g clip-path="url(#clip0_1_230)">
<path d="M9.1759 0.0590286C6.84999 0.367674 4.90254 1.75854 3.86968 3.84483C3.49517 4.60668 3.29411 5.2982 3.1995 6.17335C3.01422 7.84942 3.66074 9.72474 5.24157 12.108C5.76588 12.8933 6.50702 13.8856 7.14566 14.6475L7.58719 15.1749L7.41767 15.2101C6.98797 15.2921 6.16799 15.5187 5.85261 15.6437C5.01292 15.9719 4.42159 16.4173 4.18111 16.9057C4.06679 17.1323 4.05102 17.2026 4.05102 17.48C4.05102 17.7417 4.07073 17.8316 4.1614 18.023C4.37428 18.4762 4.73302 18.8044 5.37166 19.1209C6.95643 19.9101 9.73176 20.2031 12.2311 19.8437C13.5321 19.6561 14.6595 19.2693 15.3297 18.7771C15.6214 18.5622 15.8225 18.3278 15.9644 18.023C16.1182 17.6988 16.1182 17.269 15.9683 16.9408C15.854 16.6947 15.5071 16.3079 15.2351 16.1243C14.9986 15.9641 14.5176 15.7297 14.1392 15.589C13.8671 15.4914 12.8619 15.2257 12.6096 15.1866C12.5504 15.1788 12.6372 15.0538 13.0235 14.5889C15.5781 11.5024 16.9618 8.77927 16.9618 6.83753C16.9618 4.56761 15.7909 2.41099 13.875 1.14515C12.4992 0.234838 10.7962 -0.15976 9.1759 0.0590286ZM11.214 1.2858C12.3454 1.52022 13.2364 2.00858 14.084 2.84857C14.9394 3.69637 15.4125 4.55198 15.6687 5.72796C15.7791 6.24758 15.7909 7.17743 15.6885 7.65407C15.4519 8.74801 14.7739 10.1584 13.7607 11.6587C12.9289 12.8854 11.4269 14.7256 10.3507 15.8273L10.059 16.1282L9.75147 15.8078C8.54909 14.5615 7.18114 12.8815 6.29414 11.561C5.34801 10.1506 4.7961 9.0254 4.49255 7.88849C4.38217 7.47436 4.37428 7.3845 4.37034 6.79455C4.37034 5.62248 4.65812 4.677 5.3283 3.66902C5.60031 3.25879 6.42424 2.43053 6.81846 2.17267C7.61479 1.65305 8.45842 1.33268 9.3533 1.20766C9.76724 1.15297 10.7764 1.19203 11.214 1.2858ZM9.29811 17.019L10.0629 17.7925L10.8316 17.015L11.6004 16.2376L11.8645 16.2649C12.6411 16.3431 13.6937 16.6322 14.2535 16.9213C14.5925 17.0971 14.9118 17.3628 14.9118 17.4761C14.9118 17.5972 14.6004 17.8785 14.289 18.0387C12.243 19.0857 7.87891 19.0857 5.83684 18.0387C5.52541 17.8785 5.21397 17.5972 5.21397 17.4761C5.21397 17.269 5.89598 16.851 6.60164 16.6244C7.09047 16.4642 8.04843 16.2649 8.37958 16.2532C8.52938 16.2493 8.55698 16.2727 9.29811 17.019Z" fill="#DB2F09"/>
<path d="M9.62928 3.16107C8.06028 3.35642 6.80271 4.47379 6.4282 6.0014C6.32176 6.4546 6.31387 7.15003 6.41243 7.59542C6.61348 8.47447 7.11809 9.25195 7.82769 9.78719C8.11941 10.006 8.76594 10.3224 9.09708 10.4045C9.89735 10.6076 10.7725 10.549 11.49 10.2404C12.105 9.98254 12.649 9.56059 13.0432 9.04879C13.2955 8.7167 13.5912 8.0955 13.6937 7.67355C13.8041 7.21254 13.8159 6.52101 13.7134 6.07172C13.3902 4.66132 12.3061 3.55957 10.9223 3.23921C10.5281 3.14935 9.98014 3.11809 9.62928 3.16107ZM10.7213 4.39565C11.5807 4.61835 12.2942 5.33331 12.5308 6.21237C12.6175 6.54446 12.6175 7.12659 12.5308 7.45867C12.3494 8.12676 11.8606 8.74014 11.2614 9.04879C10.8395 9.26757 10.5202 9.34571 10.0629 9.34571C9.60563 9.34571 9.28631 9.26757 8.86449 9.04879C8.26527 8.74014 7.77644 8.12676 7.5951 7.45867C7.50837 7.12659 7.50443 6.54446 7.59115 6.21237C7.85134 5.24345 8.69498 4.48551 9.68842 4.33705C9.96831 4.29407 10.4296 4.32142 10.7213 4.39565Z" fill="#DB2F09"/>
</g>
<defs>
<clipPath id="clip0_1_230">
<rect width="20" height="20" fill="white"/>
</clipPath>
</defs>
</svg>
