<svg width="30" height="30" viewBox="0 0 30 30" fill="none" xmlns="http://www.w3.org/2000/svg">
<path d="M13.7639 0.0885429C10.275 0.551514 7.35383 2.63781 5.80454 5.76725C5.24277 6.91002 4.94119 7.94731 4.79927 9.26003C4.52135 11.7741 5.49113 14.5871 7.86238 18.1619C8.64885 19.3399 9.76056 20.8284 10.7185 21.9712L11.3808 22.7623L11.1265 22.8151C10.482 22.9381 9.25201 23.278 8.77894 23.4656C7.5194 23.9579 6.6324 24.6259 6.27169 25.3585C6.1002 25.6984 6.07655 25.8039 6.07655 26.22C6.07655 26.6126 6.10612 26.7474 6.24212 27.0345C6.56144 27.7144 7.09956 28.2066 8.05752 28.6813C10.4347 29.8651 14.5977 30.3046 18.3467 29.7655C20.2981 29.4842 21.9893 28.904 22.9946 28.1656C23.4322 27.8433 23.7338 27.4917 23.9466 27.0345C24.1773 26.5481 24.1773 25.9035 23.9525 25.4112C23.7811 25.042 23.2607 24.4618 22.8527 24.1864C22.4979 23.9461 21.7764 23.5945 21.2088 23.3835C20.8007 23.237 19.2928 22.8385 18.9144 22.7799C18.8257 22.7682 18.9558 22.5807 19.5353 21.8833C23.3671 17.2536 25.4427 13.1689 25.4427 10.2563C25.4427 6.85142 23.6864 3.61649 20.8126 1.71773C18.7488 0.352261 16.1943 -0.239637 13.7639 0.0885429ZM16.8211 1.9287C18.5182 2.28032 19.8546 3.01287 21.126 4.27285C22.4092 5.54455 23.1188 6.82797 23.5031 8.59195C23.6687 9.37138 23.6864 10.7661 23.5327 11.4811C23.1779 13.122 22.1608 15.2376 20.6411 17.488C19.3934 19.3282 17.1404 22.0884 15.5261 23.741L15.0885 24.1923L14.6272 23.7117C12.8237 21.8423 10.7717 19.3223 9.44124 17.3415C8.02204 15.2259 7.19417 13.5381 6.73884 11.8327C6.57327 11.2115 6.56144 11.0767 6.55553 10.1918C6.55553 8.43372 6.9872 7.01551 7.99247 5.50353C8.40049 4.88819 9.63638 3.64579 10.2277 3.25901C11.4222 2.47958 12.6877 1.99903 14.03 1.81149C14.6509 1.72945 16.1647 1.78805 16.8211 1.9287ZM13.9472 25.5284L15.0944 26.6888L16.2475 25.5226L17.4006 24.3564L17.7968 24.3974C18.9617 24.5146 20.5406 24.9483 21.3802 25.3819C21.8888 25.6456 22.3678 26.0441 22.3678 26.2141C22.3678 26.3958 21.9006 26.8177 21.4335 27.058C18.3645 28.6286 11.8184 28.6286 8.75529 27.058C8.28814 26.8177 7.82098 26.3958 7.82098 26.2141C7.82098 25.9035 8.84399 25.2764 9.90248 24.9365C10.6357 24.6963 12.0727 24.3974 12.5694 24.3798C12.7941 24.3739 12.8355 24.4091 13.9472 25.5284Z" fill="#DB2F09"/>
<path d="M14.444 4.7416C12.0905 5.03462 10.2041 6.71069 9.64235 9.00209C9.48269 9.6819 9.47087 10.725 9.6187 11.3931C9.92028 12.7117 10.6772 13.8779 11.7416 14.6808C12.1792 15.009 13.149 15.4837 13.6457 15.6067C14.8461 15.9115 16.1588 15.8236 17.2351 15.3606C18.1575 14.9738 18.9736 14.3409 19.5649 13.5732C19.9434 13.075 20.3869 12.1433 20.5406 11.5103C20.7062 10.8188 20.7239 9.78152 20.5702 9.10758C20.0853 6.99199 18.4591 5.33936 16.3835 4.85881C15.7922 4.72402 14.9703 4.67714 14.444 4.7416ZM16.082 6.59348C17.3711 6.92752 18.4414 7.99997 18.7962 9.31855C18.9263 9.81668 18.9263 10.6899 18.7962 11.188C18.5242 12.1901 17.7909 13.1102 16.8921 13.5732C16.2594 13.9014 15.7804 14.0186 15.0944 14.0186C14.4085 14.0186 13.9295 13.9014 13.2968 13.5732C12.398 13.1102 11.6647 12.1901 11.3927 11.188C11.2626 10.6899 11.2567 9.81668 11.3868 9.31855C11.7771 7.86518 13.0425 6.72827 14.5327 6.50558C14.9525 6.44111 15.6444 6.48213 16.082 6.59348Z" fill="#DB2F09"/>
</svg>
