<svg width="186" height="30" viewBox="0 0 186 30" fill="none" xmlns="http://www.w3.org/2000/svg">
<g clip-path="url(#clip0_0_546)">
<g filter="url(#filter0_d_0_546)">
<rect width="186" height="30" rx="15" fill="#C6F6D5"/>
</g>
<path d="M13.0043 20V9.81818H16.8224C17.6046 9.81818 18.2609 9.95407 18.7912 10.2259C19.3248 10.4976 19.7275 10.8788 19.9993 11.3693C20.2744 11.8565 20.4119 12.425 20.4119 13.0746C20.4119 13.7275 20.2727 14.2943 19.9943 14.7749C19.7192 15.2521 19.3132 15.6217 18.7763 15.8835C18.2393 16.142 17.5798 16.2713 16.7976 16.2713H14.0781V14.7401H16.549C17.0064 14.7401 17.3809 14.6771 17.6726 14.5511C17.9643 14.4219 18.1797 14.2346 18.3189 13.9893C18.4614 13.7408 18.5327 13.4358 18.5327 13.0746C18.5327 12.7133 18.4614 12.4051 18.3189 12.1499C18.1764 11.8913 17.9593 11.6958 17.6676 11.5632C17.3759 11.4273 16.9998 11.3594 16.5391 11.3594H14.8487V20H13.0043ZM18.2642 15.3864L20.7848 20H18.7266L16.2507 15.3864H18.2642ZM25.3015 20.1491C24.5359 20.1491 23.8746 19.9901 23.3178 19.6719C22.7643 19.3504 22.3384 18.8963 22.0401 18.3097C21.7418 17.7197 21.5927 17.0253 21.5927 16.2266C21.5927 15.4411 21.7418 14.7517 22.0401 14.1584C22.3417 13.5618 22.7627 13.0978 23.3029 12.7663C23.8432 12.4316 24.4779 12.2642 25.207 12.2642C25.6777 12.2642 26.1218 12.3404 26.5394 12.4929C26.9603 12.642 27.3316 12.8741 27.6531 13.1889C27.9779 13.5038 28.2331 13.9048 28.4187 14.392C28.6043 14.8759 28.6971 15.4527 28.6971 16.1222V16.674H22.4379V15.4609H26.9719C26.9686 15.1162 26.8941 14.8097 26.7482 14.5412C26.6024 14.2694 26.3986 14.0556 26.1367 13.8999C25.8782 13.7441 25.5766 13.6662 25.2319 13.6662C24.864 13.6662 24.5408 13.7557 24.2624 13.9347C23.984 14.1103 23.7669 14.3423 23.6112 14.6307C23.4587 14.9157 23.3808 15.2289 23.3775 15.5703V16.6293C23.3775 17.0734 23.4587 17.4545 23.6211 17.7727C23.7835 18.0876 24.0105 18.3295 24.3022 18.4986C24.5939 18.6643 24.9353 18.7472 25.3263 18.7472C25.5882 18.7472 25.8252 18.7107 26.0373 18.6378C26.2494 18.5616 26.4334 18.4505 26.5891 18.3047C26.7449 18.1589 26.8626 17.9782 26.9421 17.7628L28.6225 17.9517C28.5165 18.3958 28.3143 18.7836 28.016 19.1151C27.721 19.4432 27.3432 19.6984 26.8825 19.8807C26.4218 20.0597 25.8948 20.1491 25.3015 20.1491ZM32.4171 20.1541C31.9332 20.1541 31.4973 20.0679 31.1096 19.8956C30.7251 19.7199 30.4202 19.4614 30.1948 19.12C29.9727 18.7786 29.8617 18.3577 29.8617 17.8572C29.8617 17.4264 29.9412 17.0701 30.1003 16.7884C30.2594 16.5066 30.4765 16.2812 30.7516 16.1122C31.0267 15.9432 31.3366 15.8156 31.6813 15.7294C32.0293 15.6399 32.3889 15.5753 32.7601 15.5355C33.2076 15.4891 33.5705 15.4477 33.8489 15.4112C34.1273 15.3714 34.3295 15.3118 34.4554 15.2322C34.5847 15.1494 34.6493 15.0218 34.6493 14.8494V14.8196C34.6493 14.4451 34.5383 14.1551 34.3162 13.9496C34.0942 13.7441 33.7743 13.6413 33.3567 13.6413C32.9159 13.6413 32.5662 13.7375 32.3077 13.9297C32.0525 14.1219 31.8801 14.349 31.7907 14.6108L30.1103 14.3722C30.2428 13.9081 30.4616 13.5204 30.7665 13.2088C31.0714 12.8939 31.4443 12.6586 31.8851 12.5028C32.3259 12.3438 32.8132 12.2642 33.3468 12.2642C33.7147 12.2642 34.0809 12.3073 34.4455 12.3935C34.8101 12.4796 35.1432 12.6222 35.4448 12.821C35.7464 13.0166 35.9883 13.2834 36.1706 13.6214C36.3562 13.9595 36.449 14.3821 36.449 14.8892V20H34.7189V18.951H34.6593C34.5499 19.1631 34.3958 19.362 34.1969 19.5476C34.0014 19.7299 33.7544 19.8774 33.4561 19.9901C33.1612 20.0994 32.8148 20.1541 32.4171 20.1541ZM32.8844 18.8317C33.2457 18.8317 33.5589 18.7604 33.824 18.6179C34.0892 18.4721 34.293 18.2798 34.4355 18.0412C34.5814 17.8026 34.6543 17.5424 34.6543 17.2607V16.3608C34.598 16.4072 34.5018 16.4503 34.3659 16.4901C34.2334 16.5298 34.0842 16.5646 33.9185 16.5945C33.7528 16.6243 33.5887 16.6508 33.4263 16.674C33.2639 16.6972 33.123 16.7171 33.0037 16.7337C32.7353 16.7701 32.495 16.8298 32.2828 16.9126C32.0707 16.9955 31.9034 17.1115 31.7807 17.2607C31.6581 17.4065 31.5968 17.5954 31.5968 17.8274C31.5968 18.1589 31.7177 18.4091 31.9597 18.5781C32.2016 18.7472 32.5099 18.8317 32.8844 18.8317ZM41.5897 20.1491C40.8274 20.1491 40.1728 19.9818 39.6259 19.647C39.0823 19.3123 38.6631 18.8499 38.3681 18.2599C38.0764 17.6667 37.9306 16.9839 37.9306 16.2116C37.9306 15.4361 38.0797 14.7517 38.378 14.1584C38.6763 13.5618 39.0972 13.0978 39.6408 12.7663C40.1877 12.4316 40.834 12.2642 41.5797 12.2642C42.1995 12.2642 42.748 12.3786 43.2253 12.6072C43.7059 12.8326 44.0887 13.1525 44.3738 13.5668C44.6588 13.9777 44.8212 14.4583 44.861 15.0085H43.1408C43.0712 14.6406 42.9055 14.334 42.6436 14.0888C42.3851 13.8402 42.0388 13.7159 41.6046 13.7159C41.2367 13.7159 40.9135 13.8153 40.6351 14.0142C40.3567 14.2098 40.1396 14.4915 39.9838 14.8594C39.8314 15.2273 39.7551 15.6681 39.7551 16.1818C39.7551 16.7022 39.8314 17.1496 39.9838 17.5241C40.1363 17.8954 40.3501 18.1821 40.6252 18.3842C40.9036 18.5831 41.2301 18.6825 41.6046 18.6825C41.8697 18.6825 42.1067 18.6328 42.3155 18.5334C42.5276 18.4306 42.705 18.2831 42.8475 18.0909C42.99 17.8987 43.0878 17.665 43.1408 17.3899H44.861C44.8179 17.9302 44.6588 18.4091 44.3837 18.8267C44.1086 19.241 43.7341 19.5658 43.2601 19.8011C42.7862 20.0331 42.2293 20.1491 41.5897 20.1491ZM48.1385 15.5256V20H46.3388V9.81818H48.0987V13.6612H48.1882C48.3672 13.2304 48.6439 12.8906 49.0185 12.642C49.3963 12.3902 49.8769 12.2642 50.4602 12.2642C50.9905 12.2642 51.4529 12.3752 51.8473 12.5973C52.2417 12.8194 52.5466 13.1442 52.7621 13.5717C52.9808 13.9993 53.0902 14.5213 53.0902 15.1378V20H51.2905V15.4162C51.2905 14.9025 51.1579 14.5031 50.8928 14.218C50.6309 13.9297 50.263 13.7855 49.7891 13.7855C49.4709 13.7855 49.1858 13.8551 48.9339 13.9943C48.6854 14.1302 48.4898 14.3274 48.3473 14.5859C48.2081 14.8445 48.1385 15.1577 48.1385 15.5256ZM61.7184 23.0227C61.0721 23.0227 60.5169 22.9349 60.0529 22.7592C59.5889 22.5869 59.216 22.3549 58.9343 22.0632C58.6526 21.7715 58.457 21.4484 58.3477 21.0938L59.9684 20.701C60.0413 20.8501 60.1474 20.9976 60.2866 21.1435C60.4258 21.2926 60.613 21.4152 60.8484 21.5114C61.087 21.6108 61.387 21.6605 61.7482 21.6605C62.2586 21.6605 62.6812 21.5362 63.016 21.2876C63.3507 21.0424 63.5181 20.638 63.5181 20.0746V18.6278H63.4286C63.3358 18.8134 63.1999 19.004 63.021 19.1996C62.8453 19.3951 62.6116 19.5592 62.32 19.6918C62.0316 19.8243 61.6687 19.8906 61.2312 19.8906C60.6445 19.8906 60.1126 19.7531 59.6353 19.478C59.1613 19.1996 58.7835 18.7853 58.5018 18.2351C58.2234 17.6816 58.0842 16.9889 58.0842 16.157C58.0842 15.3184 58.2234 14.6108 58.5018 14.0341C58.7835 13.4541 59.163 13.0149 59.6403 12.7166C60.1175 12.415 60.6495 12.2642 61.2362 12.2642C61.6836 12.2642 62.0515 12.3404 62.3398 12.4929C62.6315 12.642 62.8635 12.8227 63.0359 13.0348C63.2082 13.2436 63.3391 13.4408 63.4286 13.6264H63.5281V12.3636H65.3029V20.1243C65.3029 20.7772 65.1471 21.3175 64.8356 21.745C64.524 22.1726 64.0981 22.4924 63.5579 22.7045C63.0176 22.9167 62.4045 23.0227 61.7184 23.0227ZM61.7333 18.4787C62.1145 18.4787 62.4393 18.3859 62.7077 18.2003C62.9762 18.0147 63.18 17.7479 63.3192 17.3999C63.4585 17.0518 63.5281 16.6342 63.5281 16.147C63.5281 15.6664 63.4585 15.2455 63.3192 14.8842C63.1834 14.523 62.9812 14.2429 62.7127 14.044C62.4476 13.8419 62.1211 13.7408 61.7333 13.7408C61.3323 13.7408 60.9975 13.8452 60.729 14.054C60.4606 14.2628 60.2584 14.5495 60.1225 14.9141C59.9866 15.2753 59.9187 15.6863 59.9187 16.147C59.9187 16.6143 59.9866 17.0237 60.1225 17.375C60.2617 17.723 60.4656 17.9948 60.734 18.1903C61.0058 18.3826 61.3389 18.4787 61.7333 18.4787ZM70.4783 20.1491C69.7326 20.1491 69.0863 19.9851 68.5394 19.657C67.9925 19.3288 67.5683 18.8698 67.2667 18.2798C66.9684 17.6899 66.8192 17.0005 66.8192 16.2116C66.8192 15.4228 66.9684 14.7318 67.2667 14.1385C67.5683 13.5452 67.9925 13.0845 68.5394 12.7564C69.0863 12.4283 69.7326 12.2642 70.4783 12.2642C71.2241 12.2642 71.8704 12.4283 72.4173 12.7564C72.9641 13.0845 73.3867 13.5452 73.685 14.1385C73.9866 14.7318 74.1374 15.4228 74.1374 16.2116C74.1374 17.0005 73.9866 17.6899 73.685 18.2798C73.3867 18.8698 72.9641 19.3288 72.4173 19.657C71.8704 19.9851 71.2241 20.1491 70.4783 20.1491ZM70.4883 18.7074C70.8926 18.7074 71.2307 18.5964 71.5025 18.3743C71.7743 18.1489 71.9764 17.8473 72.109 17.4695C72.2449 17.0916 72.3129 16.6707 72.3129 16.2067C72.3129 15.7393 72.2449 15.3168 72.109 14.9389C71.9764 14.5578 71.7743 14.2545 71.5025 14.0291C71.2307 13.8037 70.8926 13.6911 70.4883 13.6911C70.074 13.6911 69.7293 13.8037 69.4542 14.0291C69.1824 14.2545 68.9786 14.5578 68.8427 14.9389C68.7101 15.3168 68.6438 15.7393 68.6438 16.2067C68.6438 16.6707 68.7101 17.0916 68.8427 17.4695C68.9786 17.8473 69.1824 18.1489 69.4542 18.3743C69.7293 18.5964 70.074 18.7074 70.4883 18.7074ZM77.8624 20.1541C77.3785 20.1541 76.9426 20.0679 76.5549 19.8956C76.1704 19.7199 75.8655 19.4614 75.6401 19.12C75.418 18.7786 75.307 18.3577 75.307 17.8572C75.307 17.4264 75.3865 17.0701 75.5456 16.7884C75.7047 16.5066 75.9218 16.2812 76.1969 16.1122C76.472 15.9432 76.7819 15.8156 77.1266 15.7294C77.4746 15.6399 77.8342 15.5753 78.2054 15.5355C78.6529 15.4891 79.0158 15.4477 79.2942 15.4112C79.5726 15.3714 79.7748 15.3118 79.9007 15.2322C80.03 15.1494 80.0946 15.0218 80.0946 14.8494V14.8196C80.0946 14.4451 79.9836 14.1551 79.7615 13.9496C79.5395 13.7441 79.2196 13.6413 78.802 13.6413C78.3612 13.6413 78.0115 13.7375 77.753 13.9297C77.4978 14.1219 77.3255 14.349 77.236 14.6108L75.5556 14.3722C75.6882 13.9081 75.9069 13.5204 76.2118 13.2088C76.5167 12.8939 76.8896 12.6586 77.3304 12.5028C77.7712 12.3438 78.2585 12.2642 78.7921 12.2642C79.16 12.2642 79.5262 12.3073 79.8908 12.3935C80.2554 12.4796 80.5885 12.6222 80.8901 12.821C81.1917 13.0166 81.4337 13.2834 81.6159 13.6214C81.8016 13.9595 81.8944 14.3821 81.8944 14.8892V20H80.1642V18.951H80.1046C79.9952 19.1631 79.8411 19.362 79.6422 19.5476C79.4467 19.7299 79.1998 19.8774 78.9015 19.9901C78.6065 20.0994 78.2601 20.1541 77.8624 20.1541ZM78.3297 18.8317C78.691 18.8317 79.0042 18.7604 79.2694 18.6179C79.5345 18.4721 79.7383 18.2798 79.8809 18.0412C80.0267 17.8026 80.0996 17.5424 80.0996 17.2607V16.3608C80.0433 16.4072 79.9471 16.4503 79.8113 16.4901C79.6787 16.5298 79.5295 16.5646 79.3638 16.5945C79.1981 16.6243 79.034 16.6508 78.8716 16.674C78.7092 16.6972 78.5684 16.7171 78.449 16.7337C78.1806 16.7701 77.9403 16.8298 77.7282 16.9126C77.516 16.9955 77.3487 17.1115 77.226 17.2607C77.1034 17.4065 77.0421 17.5954 77.0421 17.8274C77.0421 18.1589 77.1631 18.4091 77.405 18.5781C77.647 18.7472 77.9552 18.8317 78.3297 18.8317ZM85.5037 9.81818V20H83.704V9.81818H85.5037ZM93.3899 14.3821L91.7493 14.5611C91.7029 14.3954 91.6217 14.2396 91.5057 14.0938C91.393 13.9479 91.2405 13.8303 91.0483 13.7408C90.8561 13.6513 90.6207 13.6065 90.3423 13.6065C89.9678 13.6065 89.6529 13.6877 89.3977 13.8501C89.1458 14.0125 89.0215 14.223 89.0249 14.4815C89.0215 14.7036 89.1027 14.8842 89.2685 15.0234C89.4375 15.1626 89.7159 15.277 90.1037 15.3665L91.4062 15.6449C92.1288 15.8007 92.6657 16.0476 93.017 16.3857C93.3717 16.7237 93.5507 17.1662 93.554 17.7131C93.5507 18.1937 93.4098 18.6179 93.1314 18.9858C92.8563 19.3504 92.4735 19.6354 91.983 19.8409C91.4924 20.0464 90.929 20.1491 90.2926 20.1491C89.358 20.1491 88.6056 19.9536 88.0355 19.5625C87.4654 19.1681 87.1257 18.6196 87.0163 17.9169L88.7713 17.7479C88.8509 18.0926 89.0199 18.3527 89.2784 18.5284C89.5369 18.7041 89.8733 18.7919 90.2876 18.7919C90.7152 18.7919 91.0582 18.7041 91.3168 18.5284C91.5786 18.3527 91.7095 18.1357 91.7095 17.8771C91.7095 17.6584 91.625 17.4777 91.456 17.3352C91.2902 17.1927 91.0317 17.0833 90.6804 17.0071L89.3778 16.7337C88.6454 16.5812 88.1035 16.3243 87.7521 15.9631C87.4008 15.5985 87.2268 15.1378 87.2301 14.581C87.2268 14.1103 87.3544 13.7027 87.6129 13.358C87.8748 13.0099 88.2377 12.7415 88.7017 12.5526C89.169 12.3603 89.7076 12.2642 90.3175 12.2642C91.2124 12.2642 91.9167 12.4548 92.4304 12.8359C92.9474 13.2171 93.2673 13.7325 93.3899 14.3821ZM102.324 12.3636V13.7557H97.9339V12.3636H102.324ZM99.0178 10.5341H100.817V17.7031C100.817 17.9451 100.854 18.1307 100.927 18.2599C101.003 18.3859 101.103 18.4721 101.225 18.5185C101.348 18.5649 101.484 18.5881 101.633 18.5881C101.746 18.5881 101.848 18.5798 101.941 18.5632C102.037 18.5466 102.11 18.5317 102.16 18.5185L102.463 19.9254C102.367 19.9586 102.229 19.995 102.05 20.0348C101.875 20.0746 101.659 20.0978 101.404 20.1044C100.953 20.1177 100.547 20.0497 100.186 19.9006C99.8248 19.7481 99.5381 19.5128 99.326 19.1946C99.1172 18.8764 99.0144 18.4787 99.0178 18.0014V10.5341ZM105.793 15.5256V20H103.993V9.81818H105.753V13.6612H105.843C106.021 13.2304 106.298 12.8906 106.673 12.642C107.051 12.3902 107.531 12.2642 108.115 12.2642C108.645 12.2642 109.107 12.3752 109.502 12.5973C109.896 12.8194 110.201 13.1442 110.416 13.5717C110.635 13.9993 110.744 14.5213 110.744 15.1378V20H108.945V15.4162C108.945 14.9025 108.812 14.5031 108.547 14.218C108.285 13.9297 107.917 13.7855 107.443 13.7855C107.125 13.7855 106.84 13.8551 106.588 13.9943C106.34 14.1302 106.144 14.3274 106.002 14.5859C105.862 14.8445 105.793 15.1577 105.793 15.5256ZM114.776 20.1541C114.293 20.1541 113.857 20.0679 113.469 19.8956C113.084 19.7199 112.78 19.4614 112.554 19.12C112.332 18.7786 112.221 18.3577 112.221 17.8572C112.221 17.4264 112.301 17.0701 112.46 16.7884C112.619 16.5066 112.836 16.2812 113.111 16.1122C113.386 15.9432 113.696 15.8156 114.041 15.7294C114.389 15.6399 114.748 15.5753 115.119 15.5355C115.567 15.4891 115.93 15.4477 116.208 15.4112C116.487 15.3714 116.689 15.3118 116.815 15.2322C116.944 15.1494 117.009 15.0218 117.009 14.8494V14.8196C117.009 14.4451 116.898 14.1551 116.676 13.9496C116.454 13.7441 116.134 13.6413 115.716 13.6413C115.275 13.6413 114.926 13.7375 114.667 13.9297C114.412 14.1219 114.24 14.349 114.15 14.6108L112.47 14.3722C112.602 13.9081 112.821 13.5204 113.126 13.2088C113.431 12.8939 113.804 12.6586 114.244 12.5028C114.685 12.3438 115.173 12.2642 115.706 12.2642C116.074 12.2642 116.44 12.3073 116.805 12.3935C117.169 12.4796 117.503 12.6222 117.804 12.821C118.106 13.0166 118.348 13.2834 118.53 13.6214C118.716 13.9595 118.808 14.3821 118.808 14.8892V20H117.078V18.951H117.019C116.909 19.1631 116.755 19.362 116.556 19.5476C116.361 19.7299 116.114 19.8774 115.816 19.9901C115.521 20.0994 115.174 20.1541 114.776 20.1541ZM115.244 18.8317C115.605 18.8317 115.918 18.7604 116.183 18.6179C116.449 18.4721 116.652 18.2798 116.795 18.0412C116.941 17.8026 117.014 17.5424 117.014 17.2607V16.3608C116.957 16.4072 116.861 16.4503 116.725 16.4901C116.593 16.5298 116.444 16.5646 116.278 16.5945C116.112 16.6243 115.948 16.6508 115.786 16.674C115.623 16.6972 115.482 16.7171 115.363 16.7337C115.095 16.7701 114.854 16.8298 114.642 16.9126C114.43 16.9955 114.263 17.1115 114.14 17.2607C114.017 17.4065 113.956 17.5954 113.956 17.8274C113.956 18.1589 114.077 18.4091 114.319 18.5781C114.561 18.7472 114.869 18.8317 115.244 18.8317ZM124.431 12.3636V13.7557H120.041V12.3636H124.431ZM121.125 10.5341H122.925V17.7031C122.925 17.9451 122.961 18.1307 123.034 18.2599C123.11 18.3859 123.21 18.4721 123.333 18.5185C123.455 18.5649 123.591 18.5881 123.74 18.5881C123.853 18.5881 123.956 18.5798 124.048 18.5632C124.145 18.5466 124.218 18.5317 124.267 18.5185L124.57 19.9254C124.474 19.9586 124.337 19.995 124.158 20.0348C123.982 20.0746 123.767 20.0978 123.512 20.1044C123.061 20.1177 122.655 20.0497 122.294 19.9006C121.932 19.7481 121.646 19.5128 121.433 19.1946C121.225 18.8764 121.122 18.4787 121.125 18.0014V10.5341ZM129.409 20V12.3636H131.129V13.6612H131.219C131.378 13.2237 131.641 12.8823 132.009 12.6371C132.377 12.3885 132.816 12.2642 133.327 12.2642C133.844 12.2642 134.28 12.3902 134.634 12.642C134.992 12.8906 135.244 13.2304 135.39 13.6612H135.469C135.638 13.237 135.924 12.8989 136.325 12.647C136.729 12.3918 137.208 12.2642 137.761 12.2642C138.464 12.2642 139.037 12.4863 139.482 12.9304C139.926 13.3745 140.148 14.0225 140.148 14.8743V20H138.343V15.1527C138.343 14.6787 138.217 14.3324 137.965 14.1136C137.713 13.8916 137.405 13.7805 137.04 13.7805C136.606 13.7805 136.267 13.9164 136.021 14.1882C135.779 14.4567 135.658 14.8063 135.658 15.2372V20H133.893V15.0781C133.893 14.6837 133.774 14.3688 133.536 14.1335C133.3 13.8982 132.992 13.7805 132.611 13.7805C132.352 13.7805 132.117 13.8468 131.905 13.9794C131.693 14.1087 131.524 14.2926 131.398 14.5312C131.272 14.7666 131.209 15.0417 131.209 15.3565V20H129.409ZM144.171 20.1541C143.687 20.1541 143.251 20.0679 142.863 19.8956C142.479 19.7199 142.174 19.4614 141.949 19.12C141.727 18.7786 141.616 18.3577 141.616 17.8572C141.616 17.4264 141.695 17.0701 141.854 16.7884C142.013 16.5066 142.23 16.2812 142.506 16.1122C142.781 15.9432 143.09 15.8156 143.435 15.7294C143.783 15.6399 144.143 15.5753 144.514 15.5355C144.961 15.4891 145.324 15.4477 145.603 15.4112C145.881 15.3714 146.083 15.3118 146.209 15.2322C146.339 15.1494 146.403 15.0218 146.403 14.8494V14.8196C146.403 14.4451 146.292 14.1551 146.07 13.9496C145.848 13.7441 145.528 13.6413 145.111 13.6413C144.67 13.6413 144.32 13.7375 144.062 13.9297C143.806 14.1219 143.634 14.349 143.545 14.6108L141.864 14.3722C141.997 13.9081 142.215 13.5204 142.52 13.2088C142.825 12.8939 143.198 12.6586 143.639 12.5028C144.08 12.3438 144.567 12.2642 145.101 12.2642C145.469 12.2642 145.835 12.3073 146.199 12.3935C146.564 12.4796 146.897 12.6222 147.199 12.821C147.5 13.0166 147.742 13.2834 147.925 13.6214C148.11 13.9595 148.203 14.3821 148.203 14.8892V20H146.473V18.951H146.413C146.304 19.1631 146.15 19.362 145.951 19.5476C145.755 19.7299 145.508 19.8774 145.21 19.9901C144.915 20.0994 144.569 20.1541 144.171 20.1541ZM144.638 18.8317C145 18.8317 145.313 18.7604 145.578 18.6179C145.843 18.4721 146.047 18.2798 146.189 18.0412C146.335 17.8026 146.408 17.5424 146.408 17.2607V16.3608C146.352 16.4072 146.256 16.4503 146.12 16.4901C145.987 16.5298 145.838 16.5646 145.672 16.5945C145.507 16.6243 145.343 16.6508 145.18 16.674C145.018 16.6972 144.877 16.7171 144.758 16.7337C144.489 16.7701 144.249 16.8298 144.037 16.9126C143.825 16.9955 143.657 17.1115 143.535 17.2607C143.412 17.4065 143.351 17.5954 143.351 17.8274C143.351 18.1589 143.472 18.4091 143.714 18.5781C143.956 18.7472 144.264 18.8317 144.638 18.8317ZM153.826 12.3636V13.7557H149.436V12.3636H153.826ZM150.52 10.5341H152.319V17.7031C152.319 17.9451 152.356 18.1307 152.429 18.2599C152.505 18.3859 152.604 18.4721 152.727 18.5185C152.85 18.5649 152.986 18.5881 153.135 18.5881C153.247 18.5881 153.35 18.5798 153.443 18.5632C153.539 18.5466 153.612 18.5317 153.662 18.5185L153.965 19.9254C153.869 19.9586 153.731 19.995 153.552 20.0348C153.377 20.0746 153.161 20.0978 152.906 20.1044C152.455 20.1177 152.049 20.0497 151.688 19.9006C151.327 19.7481 151.04 19.5128 150.828 19.1946C150.619 18.8764 150.516 18.4787 150.52 18.0014V10.5341ZM159.144 12.3636V13.7557H154.754V12.3636H159.144ZM155.838 10.5341H157.638V17.7031C157.638 17.9451 157.674 18.1307 157.747 18.2599C157.823 18.3859 157.923 18.4721 158.045 18.5185C158.168 18.5649 158.304 18.5881 158.453 18.5881C158.566 18.5881 158.669 18.5798 158.761 18.5632C158.857 18.5466 158.93 18.5317 158.98 18.5185L159.283 19.9254C159.187 19.9586 159.05 19.995 158.871 20.0348C158.695 20.0746 158.48 20.0978 158.224 20.1044C157.774 20.1177 157.368 20.0497 157.006 19.9006C156.645 19.7481 156.358 19.5128 156.146 19.1946C155.938 18.8764 155.835 18.4787 155.838 18.0014V10.5341ZM163.948 20.1491C163.182 20.1491 162.521 19.9901 161.964 19.6719C161.411 19.3504 160.985 18.8963 160.687 18.3097C160.388 17.7197 160.239 17.0253 160.239 16.2266C160.239 15.4411 160.388 14.7517 160.687 14.1584C160.988 13.5618 161.409 13.0978 161.949 12.7663C162.49 12.4316 163.124 12.2642 163.854 12.2642C164.324 12.2642 164.768 12.3404 165.186 12.4929C165.607 12.642 165.978 12.8741 166.3 13.1889C166.624 13.5038 166.88 13.9048 167.065 14.392C167.251 14.8759 167.344 15.4527 167.344 16.1222V16.674H161.084V15.4609H165.618C165.615 15.1162 165.541 14.8097 165.395 14.5412C165.249 14.2694 165.045 14.0556 164.783 13.8999C164.525 13.7441 164.223 13.6662 163.878 13.6662C163.51 13.6662 163.187 13.7557 162.909 13.9347C162.631 14.1103 162.413 14.3423 162.258 14.6307C162.105 14.9157 162.027 15.2289 162.024 15.5703V16.6293C162.024 17.0734 162.105 17.4545 162.268 17.7727C162.43 18.0876 162.657 18.3295 162.949 18.4986C163.24 18.6643 163.582 18.7472 163.973 18.7472C164.235 18.7472 164.472 18.7107 164.684 18.6378C164.896 18.5616 165.08 18.4505 165.236 18.3047C165.391 18.1589 165.509 17.9782 165.589 17.7628L167.269 17.9517C167.163 18.3958 166.961 18.7836 166.662 19.1151C166.367 19.4432 165.99 19.6984 165.529 19.8807C165.068 20.0597 164.541 20.1491 163.948 20.1491ZM168.866 20V12.3636H170.611V13.6364H170.691C170.83 13.1955 171.069 12.8558 171.407 12.6172C171.748 12.3752 172.137 12.2543 172.575 12.2543C172.674 12.2543 172.785 12.2592 172.908 12.2692C173.034 12.2758 173.138 12.2874 173.221 12.304V13.9595C173.145 13.933 173.024 13.9098 172.858 13.8899C172.696 13.8667 172.538 13.8551 172.386 13.8551C172.058 13.8551 171.763 13.9264 171.501 14.0689C171.243 14.2081 171.039 14.402 170.89 14.6506C170.74 14.8991 170.666 15.1858 170.666 15.5107V20H168.866Z" fill="#36A269"/>
</g>
<defs>
<filter id="filter0_d_0_546" x="-3" y="-2" width="192" height="36" filterUnits="userSpaceOnUse" color-interpolation-filters="sRGB">
<feFlood flood-opacity="0" result="BackgroundImageFix"/>
<feColorMatrix in="SourceAlpha" type="matrix" values="0 0 0 0 0 0 0 0 0 0 0 0 0 0 0 0 0 0 127 0" result="hardAlpha"/>
<feOffset dy="1"/>
<feGaussianBlur stdDeviation="1.5"/>
<feColorMatrix type="matrix" values="0 0 0 0 0.0980392 0 0 0 0 0.12549 0 0 0 0 0.172549 0 0 0 0.04 0"/>
<feBlend mode="normal" in2="BackgroundImageFix" result="effect1_dropShadow_0_546"/>
<feBlend mode="normal" in="SourceGraphic" in2="effect1_dropShadow_0_546" result="shape"/>
</filter>
<clipPath id="clip0_0_546">
<rect width="186" height="30" fill="white"/>
</clipPath>
</defs>
</svg>
